<svg width="189" height="110" viewBox="0 0 189 110" fill="none" xmlns="http://www.w3.org/2000/svg">
<g clip-path="url(#clip0_11_101)">
<path d="M187.453 53.5823C187.103 68.1211 176.514 81.5229 159.466 91.4091C142.433 101.287 119.045 107.592 93.3437 107.949C67.6422 108.307 44.5423 102.649 27.9733 93.2386C11.3908 83.8203 1.43952 70.7042 1.78946 56.1654C2.13939 41.6266 12.7289 28.2248 29.776 18.3386C46.8093 8.46046 70.1971 2.15596 95.8987 1.79838C121.6 1.44079 144.7 7.0985 161.269 16.5091C177.852 25.9274 187.803 39.0435 187.453 53.5823Z" fill="url(#paint0_linear_11_101)" stroke="black"/>
<path d="M164.414 61.4594V80.3387C163.591 81.0549 162.49 81.6547 161.111 82.1381C159.733 82.6215 158.059 82.8632 156.089 82.8632C154.12 82.8632 152.446 82.4245 151.067 81.5472C149.51 80.5983 148.731 79.2556 148.731 77.5189V60.224H142.473C141.184 58.3799 140.54 56.3658 140.54 54.1815C140.54 52.6955 140.773 51.4065 141.238 50.3143C141.721 49.2043 142.312 48.3449 143.011 47.7362H170.779C171.298 48.5419 171.728 49.5176 172.068 50.6635C172.408 51.8093 172.578 52.9462 172.578 54.0741C172.578 56.1867 172.113 57.7443 171.182 58.7469C170.251 59.7316 168.998 60.224 167.422 60.224H159.553C159.5 60.3493 159.473 60.4836 159.473 60.6268C159.473 60.9491 159.661 61.1639 160.037 61.2714C160.431 61.3967 161.272 61.4594 162.561 61.4594H164.414Z" fill="black"/>
<path d="M121.081 34.7378C125.384 63.6558 115.94 86.3798 115.94 86.3798H124.058C129.145 64.3398 126.493 46.4798 125.14 38.5378L121.081 34.7378ZM131.255 29.9878C131.715 30.7858 132.175 31.6218 132.527 32.4958C134.732 37.3905 135.757 43.1517 135.45 48.9275C135.143 54.7032 133.52 60.1869 130.822 64.5678C131.991 60.5878 132.466 56.2732 132.207 51.9834C131.949 47.6935 130.963 43.5526 129.334 39.9058C129.118 39.4118 128.874 38.9938 128.658 38.5378C127.102 35.488 125.111 32.9258 122.813 31.0138C118.213 32.5859 114.813 36.0266 112.401 40.6647C109.988 45.3027 108.688 56.6415 108.688 56.6415L109.527 64.6595C109.527 64.6595 105.922 54.5721 105.928 48.9275C105.928 39.9975 109.013 32.0935 113.748 27.1535C109.825 26.7355 106.361 28.1258 102.735 31.2798C101.058 32.8378 99.5965 34.6238 98.3518 36.6378C99.8401 31.5838 102.411 27.0618 105.928 23.9458C109.987 20.3738 114.587 19.1958 119.025 20.1078C117.915 17.9798 116.562 15.9658 114.939 14.1798C113.369 12.5838 111.665 11.2918 109.879 10.3798C113.775 10.5318 117.672 12.2798 121 15.8138C122.705 17.5998 124.058 19.7658 125.14 22.0458C125.411 22.0458 125.654 22.0078 125.925 22.0078C134.584 22.0078 141.917 30.0258 144.352 41.0838C142.829 38.0691 140.881 35.5278 138.627 33.6186C136.374 31.7094 133.864 30.4734 131.255 29.9878Z" fill="url(#paint1_linear_11_101)"/>
<path d="M83.2234 63.2855C83.295 63.3392 83.5009 63.3661 83.8411 63.3661C84.1813 63.3661 84.4409 63.2318 84.6199 62.9633C84.7989 62.6947 84.8885 62.2561 84.8885 61.6473V60.6805C84.8885 60.036 84.8079 59.5795 84.6468 59.3109C84.5035 59.0245 84.2529 58.8812 83.8948 58.8812C83.5546 58.8812 83.3219 58.917 83.1966 58.9886C83.2145 59.0782 83.2234 59.2303 83.2234 59.4452V63.2855ZM97.0808 69.4086L101.727 74.162C101.405 76.955 100.518 79.1034 99.0681 80.6073C97.6359 82.1112 95.6485 82.8632 93.1062 82.8632C91.1905 82.8632 89.5255 82.4066 88.1111 81.4935C86.3028 80.3477 84.9511 78.5215 84.0559 76.015L83.0891 73.3832C82.3372 73.3653 81.3883 73.2668 80.2425 73.0878C80.0992 73.231 80.0276 73.4279 80.0276 73.6786C80.0276 74.162 80.7527 74.4484 82.2029 74.538L83.7337 78.4052V80.6879C81.6748 82.1381 79.034 82.8632 75.8113 82.8632C73.5017 82.8632 71.6577 82.3887 70.2791 81.4398C68.9005 80.4909 68.2112 79.1123 68.2112 77.3041V51.7914C68.2112 51.0036 68.9363 50.2427 70.3865 49.5087C71.8367 48.7567 73.7345 48.1569 76.0799 47.7094C78.4252 47.2439 80.7706 47.0111 83.116 47.0111C88.4871 47.0111 92.6855 48.1122 95.7112 50.3143C98.8981 52.6239 100.491 55.8734 100.491 60.0629C100.491 62.462 99.8111 64.5209 98.4505 66.2396C97.1077 67.9405 95.4069 69.1221 93.3479 69.7845C93.3479 70.3575 93.6881 70.6439 94.3684 70.6439C95.0667 70.6439 95.9708 70.2321 97.0808 69.4086Z" fill="black"/>
<g clip-path="url(#clip1_11_101)">
<path d="M28.1312 32.5539L38.8375 34.8437L50.5111 28.0936L33.6653 28.6402C33.5004 28.6488 33.3409 28.6903 33.202 28.7605L27.8945 31.1982C27.7294 31.2714 27.596 31.3812 27.5117 31.5136C27.4273 31.646 27.3958 31.7949 27.4213 31.9409C27.4468 32.0869 27.5281 32.2234 27.6547 32.3327C27.7812 32.442 27.9472 32.519 28.1312 32.5539V32.5539Z" fill="black"/>
<path d="M80.574 24.5957L68.8504 22.7496C67.8644 22.5935 66.8457 22.6042 65.8633 22.7812C64.8809 22.9582 63.9579 23.2973 63.157 23.7754L28.0069 44.1136L19.5142 43.9108C19.0277 43.9029 18.5496 44.014 18.1473 44.2285C17.745 44.4429 17.4388 44.7499 17.272 45.1061C17.1052 45.4622 17.0862 45.8495 17.2177 46.2133C17.3492 46.5771 17.6245 46.899 18.0048 47.1336L26.3234 52.1494C26.4604 52.2334 26.6229 52.2885 26.7956 52.3095C26.9682 52.3305 27.1451 52.3167 27.3093 52.2694C29.6615 51.5376 38.4118 47.8224 48.7515 43.2819L51.0009 59.8888C51.02 60.0326 51.0893 60.1695 51.2012 60.2846C51.3132 60.3997 51.4636 60.4886 51.6362 60.5419C51.8088 60.5952 51.9971 60.6107 52.1807 60.5868C52.3644 60.5629 52.5364 60.5005 52.6782 60.4064L57.2921 57.3544C57.5447 57.186 57.7133 56.9541 57.7685 56.6994L61.9766 37.4552C69.375 34.1727 76.44 30.9947 81.4151 28.7482C81.9314 28.5235 82.3473 28.1811 82.6064 27.7675C82.8655 27.3538 82.9552 26.8889 82.8634 26.4357C82.7716 25.9825 82.5027 25.5629 82.0932 25.2338C81.6837 24.9046 81.1534 24.6819 80.574 24.5957V24.5957Z" fill="black"/>
<line y1="-0.5" x2="18.5674" y2="-0.5" transform="matrix(-0.848638 0.528974 -0.507456 -0.861678 37.5765 52.4568)" stroke="black"/>
<line y1="-0.5" x2="13.7446" y2="-0.5" transform="matrix(-0.843038 0.537854 -0.516235 -0.856447 44.7411 54.1461)" stroke="black"/>
<line y1="-0.5" x2="18.5674" y2="-0.5" transform="matrix(-0.848638 0.528974 -0.507456 -0.861678 22.1503 53.6113)" stroke="black"/>
</g>
</g>
<defs>
<linearGradient id="paint0_linear_11_101" x1="95.527" y1="1.80611" x2="103.685" y2="102.726" gradientUnits="userSpaceOnUse">
<stop stop-color="#F68E33"/>
<stop offset="0.520833" stop-color="white" stop-opacity="0.8"/>
<stop offset="0.651042" stop-color="#5396AD" stop-opacity="0.5"/>
<stop offset="0.760417" stop-color="#A89C80"/>
<stop offset="1" stop-color="#BD6E29"/>
</linearGradient>
<linearGradient id="paint1_linear_11_101" x1="120.782" y1="77.0426" x2="121.526" y2="86.3659" gradientUnits="userSpaceOnUse">
<stop/>
<stop offset="1" stop-opacity="0"/>
</linearGradient>
<clipPath id="clip0_11_101">
<rect width="189" height="110" fill="white"/>
</clipPath>
<clipPath id="clip1_11_101">
<rect width="66.8819" height="52.0103" fill="white" transform="translate(16.3518 16.0582) rotate(-0.581183)"/>
</clipPath>
</defs>
</svg>
