<svg width="186" height="243" viewBox="0 0 186 243" fill="none" xmlns="http://www.w3.org/2000/svg">
<path d="M92 181.5C132.037 181.5 164.5 149.268 164.5 109.5C164.5 69.7322 132.037 37.5 92 37.5C51.9626 37.5 19.5 69.7322 19.5 109.5C19.5 149.268 51.9626 181.5 92 181.5Z" fill="url(#paint0_linear_2_57)" stroke="black"/>
<path fill-rule="evenodd" clip-rule="evenodd" d="M22.5578 128.456C30.9229 158.745 58.8443 181 92 181C127.903 181 157.669 154.903 163.111 120.769L22.5578 128.456Z" fill="url(#paint1_linear_2_57)"/>
<path d="M136.062 139.08V157.959C135.239 158.675 134.138 159.275 132.759 159.758C131.381 160.242 129.707 160.483 127.737 160.483C125.768 160.483 124.094 160.045 122.715 159.167C121.158 158.219 120.379 156.876 120.379 155.139V137.844H114.122C112.833 136 112.188 133.986 112.188 131.802C112.188 130.316 112.421 129.027 112.886 127.935C113.37 126.825 113.96 125.965 114.659 125.356H142.427C142.946 126.162 143.376 127.138 143.716 128.284C144.056 129.43 144.227 130.566 144.227 131.694C144.227 133.807 143.761 135.365 142.83 136.367C141.899 137.352 140.646 137.844 139.07 137.844H131.202C131.148 137.97 131.121 138.104 131.121 138.247C131.121 138.569 131.309 138.784 131.685 138.892C132.079 139.017 132.92 139.08 134.209 139.08H136.062Z" fill="black"/>
<path d="M94.2471 112.358C98.2688 141.276 89.4412 164 89.4412 164H97.0294C101.785 141.96 99.3059 124.1 98.0412 116.158L94.2471 112.358ZM103.758 107.608C104.188 108.406 104.618 109.242 104.946 110.116C107.007 115.011 107.965 120.772 107.678 126.548C107.391 132.323 105.875 137.807 103.353 142.188C104.446 138.208 104.89 133.893 104.648 129.604C104.406 125.314 103.485 121.173 101.962 117.526C101.759 117.032 101.532 116.614 101.329 116.158C99.875 113.108 98.0145 110.546 95.8659 108.634C91.566 110.206 88.3878 113.647 86.1326 118.285C83.8774 122.923 82.6624 134.262 82.6624 134.262L83.4465 142.28C83.4465 142.28 80.0763 132.192 80.0824 126.548C80.0824 117.618 82.9659 109.714 87.3924 104.774C83.7247 104.356 80.4871 105.746 77.0976 108.9C75.5294 110.458 74.1635 112.244 73 114.258C74.3912 109.204 76.7941 104.682 80.0824 101.566C83.8765 97.994 88.1765 96.816 92.3247 97.728C91.2876 95.6 90.0229 93.586 88.5053 91.8C87.0382 90.204 85.4447 88.912 83.7753 88C87.4176 88.152 91.06 89.9 94.1712 93.434C95.7647 95.22 97.0294 97.386 98.0412 99.666C98.2941 99.666 98.5218 99.628 98.7747 99.628C106.869 99.628 113.724 107.646 116 118.704C114.577 115.689 112.755 113.148 110.649 111.239C108.542 109.33 106.196 108.094 103.758 107.608Z" fill="url(#paint2_linear_2_57)"/>
<path d="M60.8716 140.906C60.9432 140.959 61.1491 140.986 61.4893 140.986C61.8294 140.986 62.089 140.852 62.2681 140.583C62.4471 140.315 62.5366 139.876 62.5366 139.268V138.301C62.5366 137.656 62.4561 137.2 62.2949 136.931C62.1517 136.645 61.901 136.501 61.543 136.501C61.2028 136.501 60.9701 136.537 60.8447 136.609C60.8626 136.698 60.8716 136.851 60.8716 137.065V140.906ZM74.729 147.029L79.375 151.782C79.0527 154.575 78.1665 156.724 76.7163 158.228C75.284 159.731 73.2967 160.483 70.7544 160.483C68.8387 160.483 67.1737 160.027 65.7593 159.114C63.951 157.968 62.5993 156.142 61.7041 153.635L60.7373 151.003C59.9854 150.986 59.0365 150.887 57.8906 150.708C57.7474 150.851 57.6758 151.048 57.6758 151.299C57.6758 151.782 58.4009 152.069 59.8511 152.158L61.3818 156.025V158.308C59.3229 159.758 56.6821 160.483 53.4595 160.483C51.1499 160.483 49.3058 160.009 47.9272 159.06C46.5487 158.111 45.8594 156.733 45.8594 154.924V129.412C45.8594 128.624 46.5845 127.863 48.0347 127.129C49.4849 126.377 51.3826 125.777 53.728 125.33C56.0734 124.864 58.4188 124.631 60.7642 124.631C66.1353 124.631 70.3337 125.732 73.3594 127.935C76.5462 130.244 78.1396 133.494 78.1396 137.683C78.1396 140.082 77.4593 142.141 76.0986 143.86C74.7559 145.561 73.055 146.742 70.9961 147.405C70.9961 147.978 71.3363 148.264 72.0166 148.264C72.7148 148.264 73.619 147.852 74.729 147.029Z" fill="black"/>
<g clip-path="url(#clip0_2_57)">
<path d="M55.6236 60.6463L64.2956 64.4163L75.3386 60.9196L60.9813 58.4014C60.8402 58.3795 60.698 58.3855 60.5684 58.4188L55.656 59.4893C55.5036 59.5203 55.3718 59.5872 55.2777 59.6813C55.1835 59.7754 55.1313 59.8923 55.1278 60.0169C55.1243 60.1415 55.1697 60.2681 55.2581 60.3803C55.3465 60.4925 55.4738 60.5852 55.6236 60.6463V60.6463Z" fill="black"/>
<path d="M101.394 63.3382L91.7841 59.7541C90.9761 59.4519 90.1117 59.2812 89.2495 59.2538C88.3874 59.2263 87.5476 59.3427 86.7873 59.5949L53.5339 70.1345L46.3778 68.4715C45.9673 68.3793 45.5434 68.3864 45.1659 68.492C44.7885 68.5976 44.4765 68.7962 44.2741 69.0598C44.0718 69.3234 43.9892 69.6387 44.038 69.9612C44.0869 70.2836 44.2648 70.597 44.5465 70.8569L50.7288 76.4489C50.8304 76.5422 50.9586 76.6162 51.1011 76.6639C51.2437 76.7116 51.3958 76.7314 51.543 76.7214C53.6602 76.5337 61.707 75.0188 71.2413 73.105L70.2947 87.1638C70.2862 87.2855 70.3214 87.4102 70.3964 87.5246C70.4715 87.6391 70.5836 87.7388 70.7206 87.813C70.8576 87.8872 71.0143 87.9332 71.1739 87.9459C71.3335 87.9586 71.4899 87.9375 71.6261 87.8851L76.0567 86.187C76.2995 86.093 76.4821 85.9319 76.5725 85.7321L83.4394 70.6413C90.2672 69.2442 96.7948 67.8744 101.393 66.9026C101.869 66.8087 102.28 66.6003 102.57 66.3057C102.86 66.011 103.016 65.6443 103.016 65.2553C103.016 64.8663 102.861 64.4737 102.57 64.1308C102.28 63.7879 101.869 63.5112 101.394 63.3382V63.3382Z" fill="black"/>
<line y1="-0.5" x2="15.9364" y2="-0.5" transform="matrix(-0.942984 0.33284 -0.332801 -0.942997 60.2042 78.6844)" stroke="black"/>
<line y1="-0.5" x2="11.7939" y2="-0.5" transform="matrix(-0.939484 0.342592 -0.342553 -0.939499 65.9804 81.3365)" stroke="black"/>
<line y1="-0.5" x2="15.9364" y2="-0.5" transform="matrix(-0.942984 0.33284 -0.332801 -0.942997 46.9445 76.9165)" stroke="black"/>
<line y1="-0.5" x2="11.0763" y2="-0.5" transform="matrix(-0.958551 0.284921 -0.284883 -0.958562 42.0873 72.6866)" stroke="black"/>
</g>
<defs>
<linearGradient id="paint0_linear_2_57" x1="92" y1="38" x2="92" y2="181" gradientUnits="userSpaceOnUse">
<stop stop-color="#F68E33"/>
<stop offset="1" stop-color="#F5F5F5"/>
</linearGradient>
<linearGradient id="paint1_linear_2_57" x1="92.5128" y1="123.366" x2="96.9545" y2="178.117" gradientUnits="userSpaceOnUse">
<stop stop-color="#5396AD" stop-opacity="0"/>
<stop offset="0.458333" stop-color="#A89C80"/>
<stop offset="1" stop-color="#BD6E29"/>
</linearGradient>
<linearGradient id="paint2_linear_2_57" x1="93.9675" y1="154.663" x2="94.7625" y2="163.978" gradientUnits="userSpaceOnUse">
<stop/>
<stop offset="1" stop-opacity="0"/>
</linearGradient>
<clipPath id="clip0_2_57">
<rect width="57.8425" height="43.7104" fill="white" transform="translate(48.4819 45) rotate(11.1891)"/>
</clipPath>
</defs>
</svg>
